<mxfile host="Electron" agent="Mozilla/5.0 (Windows NT 10.0; Win64; x64) AppleWebKit/537.36 (KHTML, like Gecko) draw.io/25.0.2 Chrome/128.0.6613.186 Electron/32.2.5 Safari/537.36" version="25.0.2">
  <diagram name="PÃ¡gina-1" id="XoVfdVzmXT0FCT3dWPdM">
    <mxGraphModel dx="840" dy="497" grid="1" gridSize="10" guides="1" tooltips="1" connect="1" arrows="1" fold="1" page="1" pageScale="1" pageWidth="827" pageHeight="1169" background="none" math="0" shadow="1">
      <root>
        <mxCell id="0" />
        <mxCell id="1" parent="0" />
        <mxCell id="gqJFN9A-wY2o9Y6DUlTp-1" value="INICIO" style="ellipse;whiteSpace=wrap;rounded=1;fillColor=#dae8fc;strokeColor=#6c8ebf;textShadow=1;strokeWidth=1;shadow=1;html=1;horizontal=1;fontSize=11;fontStyle=0;spacing=2;" parent="1" vertex="1">
          <mxGeometry x="332.8" y="20" width="140" height="80" as="geometry" />
        </mxCell>
        <mxCell id="gqJFN9A-wY2o9Y6DUlTp-11" value="menu();" style="rounded=1;whiteSpace=wrap;fillColor=#fff2cc;strokeColor=#d6b656;textShadow=1;strokeWidth=1;shadow=1;html=1;horizontal=1;fontSize=11;fontStyle=0;spacing=2;" parent="1" vertex="1">
          <mxGeometry x="235.6" y="130" width="334.4" height="40" as="geometry" />
        </mxCell>
        <mxCell id="gqJFN9A-wY2o9Y6DUlTp-24" value="" style="edgeStyle=orthogonalEdgeStyle;rounded=1;orthogonalLoop=1;jettySize=auto;fillColor=#dae8fc;strokeColor=#6c8ebf;textShadow=1;strokeWidth=1;shadow=1;html=1;horizontal=1;fontSize=11;fontStyle=0;spacing=2;exitX=0.5;exitY=1;exitDx=0;exitDy=0;" parent="1" edge="1">
          <mxGeometry relative="1" as="geometry">
            <mxPoint x="402.59000000000003" y="100" as="sourcePoint" />
            <mxPoint x="402.8" y="130" as="targetPoint" />
          </mxGeometry>
        </mxCell>
        <mxCell id="PQLrcjKw0SPNk92803Bu-2" value="" style="edgeStyle=orthogonalEdgeStyle;rounded=1;orthogonalLoop=1;jettySize=auto;fillColor=#dae8fc;strokeColor=#6c8ebf;textShadow=1;strokeWidth=1;shadow=1;html=1;horizontal=1;fontSize=11;fontStyle=0;spacing=2;exitX=0.5;exitY=1;exitDx=0;exitDy=0;" parent="1" edge="1">
          <mxGeometry relative="1" as="geometry">
            <mxPoint x="402.59000000000003" y="170" as="sourcePoint" />
            <mxPoint x="402.8" y="200" as="targetPoint" />
          </mxGeometry>
        </mxCell>
        <mxCell id="zBgUc0MRgDcSfg6FuZKC-1" value="FIN" style="ellipse;whiteSpace=wrap;rounded=1;fillColor=#dae8fc;strokeColor=#6c8ebf;textShadow=1;strokeWidth=1;shadow=1;html=1;horizontal=1;fontSize=11;fontStyle=0;spacing=2;" vertex="1" parent="1">
          <mxGeometry x="332.8" y="200" width="140" height="80" as="geometry" />
        </mxCell>
      </root>
    </mxGraphModel>
  </diagram>
</mxfile>
